<!DOCTYPE svg PUBLIC "-//W3C//DTD SVG 1.1//EN" "http://www.w3.org/Graphics/SVG/1.1/DTD/svg11.dtd">
<!-- Uploaded to: SVG Repo, www.svgrepo.com, Transformed by: SVG Repo Mixer Tools -->
<svg version="1.1" id="Layer_1" xmlns="http://www.w3.org/2000/svg" xmlns:xlink="http://www.w3.org/1999/xlink" viewBox="-144 -144 768.00 768.00" xml:space="preserve" width="800px" height="800px" fill="#000000">
<g id="SVGRepo_bgCarrier" stroke-width="0">
<rect x="-144" y="-144" width="768.00" height="768.00" rx="384" fill="#7ed0ec" strokewidth="0"/>
</g>
<g id="SVGRepo_tracerCarrier" stroke-linecap="round" stroke-linejoin="round"/>
<g id="SVGRepo_iconCarrier"> <path style="fill:#ffbb00;" d="M381.744,480H98.256C79.424,480,64,464.576,64,445.744V34.256C64,15.424,79.424,0,98.256,0h283.488 C400.576,0,416,15.424,416,34.256v411.488C416,464.576,400.576,480,381.744,480z"/> <g> <polygon style="fill:#07df3d;" points="155.968,121.2 117.136,94.16 126.304,81.04 152,98.944 185.408,51.248 198.496,60.416 "/> <rect x="240" y="74.96" style="fill:#07df3d;" width="122" height="16"/> <rect x="240" y="179.648" style="fill:#07df3d;" width="122" height="16"/> <rect x="240" y="284.336" style="fill:#07df3d;" width="122" height="16"/> <rect x="240" y="389.04" style="fill:#07df3d;" width="122" height="16"/> <path style="fill:#07df3d;" d="M154.32,324.464c-17.712,0-32.128-14.4-32.128-32.128c0-17.696,14.4-32.112,32.128-32.112 c17.696,0,32.112,14.4,32.112,32.112C186.416,310.064,172.016,324.464,154.32,324.464z M154.32,276.24 c-8.896,0-16.128,7.232-16.128,16.112c0,8.896,7.232,16.128,16.128,16.128c8.88,0,16.112-7.232,16.112-16.128 C170.416,283.472,163.184,276.24,154.32,276.24z"/> <path style="fill:#07df3d;" d="M154.32,219.76c-17.712,0-32.128-14.4-32.128-32.112s14.4-32.112,32.128-32.112 c17.696,0,32.112,14.4,32.112,32.112S172.016,219.76,154.32,219.76z M154.32,171.536c-8.896,0-16.128,7.232-16.128,16.112 s7.232,16.112,16.128,16.112c8.88,0,16.112-7.232,16.112-16.112S163.184,171.536,154.32,171.536z"/> <path style="fill:#07df3d;" d="M154.32,429.152c-17.712,0-32.128-14.4-32.128-32.112s14.4-32.112,32.128-32.112 c17.696,0,32.112,14.4,32.112,32.112S172.016,429.152,154.32,429.152z M154.32,380.944c-8.896,0-16.128,7.232-16.128,16.112 s7.232,16.112,16.128,16.112c8.88,0,16.112-7.232,16.112-16.112S163.184,380.944,154.32,380.944z"/> </g> </g>
</svg>