<?xml version="1.0" encoding="iso-8859-1"?>
<!-- Uploaded to: SVG Repo, www.svgrepo.com, Generator: SVG Repo Mixer Tools -->
<!DOCTYPE svg PUBLIC "-//W3C//DTD SVG 1.1//EN" "http://www.w3.org/Graphics/SVG/1.1/DTD/svg11.dtd">
<svg fill="#000000" version="1.1" id="Capa_1" xmlns="http://www.w3.org/2000/svg" xmlns:xlink="http://www.w3.org/1999/xlink" 
	 width="800px" height="800px" viewBox="0 0 592.016 592.015"
	 xml:space="preserve">
<g>
	<g>
		<g>
			<path d="M58.64,582.997h474.737c32.057,0,58.139-26.082,58.139-58.14V67.159c0-32.058-26.082-58.14-58.139-58.14H58.64
				c-32.058,0-58.14,26.082-58.14,58.14v457.698C0.5,556.915,26.582,582.997,58.64,582.997z M548.676,524.857
				c0,8.449-6.85,15.3-15.299,15.3H58.64c-8.45,0-15.3-6.851-15.3-15.3V175.483h505.336V524.857L548.676,524.857z M43.34,67.159
				c0-8.45,6.85-15.3,15.3-15.3h474.737c8.449,0,15.299,6.85,15.299,15.3v65.484H43.34V67.159z"/>
			<path d="M533.377,583.497H58.64c-32.334,0-58.64-26.306-58.64-58.64V67.159c0-32.334,26.306-58.64,58.64-58.64h474.737
				c32.333,0,58.639,26.306,58.639,58.64v457.698C592.016,557.191,565.71,583.497,533.377,583.497z M58.64,9.519
				C26.857,9.519,1,35.376,1,67.159v457.698c0,31.782,25.857,57.64,57.64,57.64h474.737c31.782,0,57.639-25.857,57.639-57.64V67.159
				c0-31.783-25.856-57.64-57.639-57.64H58.64z M533.377,540.657H58.64c-8.712,0-15.8-7.088-15.8-15.8V174.983h506.336v349.874
				C549.176,533.569,542.089,540.657,533.377,540.657z M43.84,175.983v348.874c0,8.161,6.639,14.8,14.8,14.8h474.737
				c8.16,0,14.799-6.639,14.799-14.8V175.983H43.84z M549.176,133.143H42.84V67.159c0-8.712,7.088-15.8,15.8-15.8h474.737
				c8.712,0,15.799,7.088,15.799,15.8V133.143z M43.84,132.143h504.336V67.159c0-8.161-6.639-14.8-14.799-14.8H58.64
				c-8.161,0-14.8,6.639-14.8,14.8V132.143z"/>
		</g>
		<g>
			<path d="M82.04,502.314c10.12,10.595,24.322,16.672,38.964,16.672c0.375,0,0.751-0.004,1.129-0.013l109.608,0.01
				c23.635,0.002,44.732-14.114,53.748-35.962c9.016-21.849,4.013-46.735-12.745-63.402l-0.882-0.877l146.074-146.278
				c12.24-12.257,15.893-30.678,9.26-46.679c-6.635-16.001-22.252-26.432-39.574-26.432h-87.877
				c-11.375,0-22.282,4.524-30.319,12.575L167.814,313.723l-1.488-1.485c-10.996-10.969-25.538-17.009-40.95-17.01
				c-14.862-0.001-29.033,5.59-39.901,15.741c-5.708,5.332-10.205,11.646-13.365,18.762c-3.309,7.454-4.987,15.419-4.986,23.673
				l0.009,110.58C66.847,478.149,72.237,492.05,82.04,502.314z M125.374,338.068c3.753,0,7.581,1.392,10.695,4.499l20.98,20.93
				c2.986,2.979,6.896,4.469,10.806,4.469c3.918,0,7.838-1.497,10.826-4.489l121.066-121.283h87.877L222.065,407.982
				c-5.995,5.985-5.985,15.702,0.021,21.675l20.448,20.338c9.68,9.626,2.861,26.149-10.79,26.148l-110.223-0.01
				c-0.174,0.008-0.346,0.013-0.518,0.013c-6.262,0-11.323-5.238-11.032-11.562L109.962,353.4
				C109.963,344.177,117.507,338.068,125.374,338.068z"/>
			<path d="M121.004,519.486c-14.778,0-29.112-6.133-39.326-16.826c-9.85-10.313-15.334-24.413-15.046-38.686l-0.009-110.57
				c-0.001-8.323,1.691-16.356,5.029-23.876c3.188-7.18,7.724-13.547,13.48-18.924c10.96-10.238,25.251-15.876,40.238-15.876
				c15.549,0,30.218,6.093,41.307,17.156l1.135,1.132l101.26-101.441c8.189-8.204,19.083-12.722,30.673-12.722h87.877
				c17.586,0,33.301,10.496,40.036,26.74c6.734,16.245,3.058,34.782-9.368,47.224L272.572,418.741l0.526,0.523
				c16.902,16.811,21.948,41.911,12.854,63.947c-9.093,22.034-30.37,36.271-54.206,36.271l-109.613-0.01
				C121.764,519.482,121.383,519.486,121.004,519.486z M125.375,295.728c-14.737,0-28.785,5.543-39.56,15.606
				c-5.658,5.285-10.116,11.543-13.249,18.6c-3.281,7.391-4.944,15.287-4.943,23.47l0.009,110.58
				c-0.283,14.021,5.101,27.861,14.77,37.984c10.026,10.497,24.096,16.518,38.603,16.518c0.371,0,0.744-0.004,1.118-0.013
				l109.62,0.01c23.435,0,44.349-13.994,53.286-35.652c8.938-21.661,3.979-46.334-12.635-62.857l-1.237-1.23L417.584,272.11
				c12.138-12.155,15.73-30.263,9.151-46.134c-6.58-15.869-21.933-26.123-39.112-26.123h-87.877
				c-11.323,0-21.965,4.414-29.965,12.428L167.814,314.43l-1.842-1.839C155.072,301.717,140.654,295.729,125.375,295.728z
				 M121.003,476.646c-3.18,0-6.144-1.27-8.346-3.576c-2.2-2.304-3.332-5.326-3.186-8.51l-0.01-111.16
				c0.001-9.91,8.091-15.832,15.912-15.832c4.123,0,8.046,1.649,11.048,4.646l20.98,20.929c2.794,2.788,6.506,4.323,10.453,4.323
				c3.957,0,7.676-1.542,10.472-4.343l121.213-121.429h89.29l-166.41,166.642c-2.805,2.801-4.348,6.525-4.344,10.488
				s1.554,7.685,4.363,10.479l20.448,20.338c4.624,4.599,5.951,11.2,3.464,17.229c-2.488,6.029-8.084,9.774-14.605,9.774
				l-110.224-0.01C121.363,476.641,121.183,476.646,121.003,476.646z M125.374,338.568c-7.329,0-14.911,5.548-14.912,14.832
				l0.009,111.184c-0.134,2.931,0.899,5.691,2.909,7.796c2.126,2.226,5.017,3.379,8.119,3.255l110.246,0.009
				c6.109,0,11.352-3.509,13.682-9.156c2.33-5.646,1.086-11.83-3.245-16.138l-20.448-20.338c-3-2.983-4.654-6.956-4.658-11.187
				s1.643-8.207,4.636-11.196l164.705-164.935h-86.464L179.034,363.83c-2.985,2.989-6.956,4.636-11.18,4.636
				c-4.213,0-8.176-1.639-11.159-4.615l-20.98-20.93C132.862,340.073,129.286,338.568,125.374,338.568z"/>
		</g>
	</g>
</g>
</svg>